<?xml version="1.0" encoding="UTF-8"?>
<svg xmlns="http://www.w3.org/2000/svg" xmlns:xlink="http://www.w3.org/1999/xlink" width="512px" height="512px" viewBox="0 0 512 512" version="1.1">
<g id="surface1">
<path style=" stroke:none;fill-rule:evenodd;fill:rgb(7.45098%,58.039216%,76.862745%);fill-opacity:1;" d="M 249.175781 0.195312 C 247.277344 0.273438 244.570312 0.425781 243.15625 0.539062 C 241.738281 0.648438 239.433594 0.863281 238.027344 1.015625 C 236.621094 1.167969 234.527344 1.417969 233.375 1.570312 C 232.21875 1.722656 229.800781 2.09375 227.996094 2.394531 C 226.191406 2.695312 223.121094 3.269531 221.175781 3.671875 C 219.226562 4.074219 216.066406 4.804688 214.144531 5.289062 C 212.226562 5.777344 208.886719 6.710938 206.726562 7.367188 C 204.5625 8.019531 201.484375 9.019531 199.882812 9.585938 C 198.28125 10.152344 195.453125 11.21875 193.597656 11.953125 C 191.738281 12.6875 189.03125 13.820312 187.574219 14.46875 C 186.121094 15.117188 183.734375 16.21875 182.273438 16.917969 C 180.808594 17.617188 178.265625 18.914062 176.617188 19.796875 C 174.964844 20.683594 172.425781 22.101562 170.972656 22.953125 C 169.515625 23.804688 166.96875 25.359375 165.3125 26.414062 C 163.660156 27.46875 161.070312 29.195312 159.566406 30.253906 C 158.0625 31.3125 156.007812 32.792969 155.003906 33.546875 C 154 34.300781 152.152344 35.738281 150.898438 36.746094 C 149.644531 37.75 147.714844 39.347656 146.613281 40.292969 C 145.507812 41.238281 143.332031 43.1875 141.777344 44.621094 C 140.21875 46.058594 117.675781 68.523438 91.679688 94.550781 C 64.640625 121.613281 43.421875 143 42.101562 144.511719 C 40.832031 145.96875 38.921875 148.226562 37.855469 149.53125 C 36.789062 150.835938 35.074219 153.011719 34.046875 154.367188 C 33.015625 155.722656 31.308594 158.0625 30.253906 159.566406 C 29.195312 161.070312 27.46875 163.660156 26.414062 165.3125 C 25.359375 166.96875 23.804688 169.515625 22.953125 170.972656 C 22.101562 172.425781 20.683594 174.96875 19.796875 176.617188 C 18.910156 178.269531 17.628906 180.78125 16.945312 182.203125 C 16.261719 183.625 15.164062 186.011719 14.5 187.503906 C 13.835938 189 12.6875 191.738281 11.953125 193.597656 C 11.21875 195.453125 10.152344 198.28125 9.585938 199.882812 C 9.019531 201.484375 8.019531 204.5625 7.367188 206.726562 C 6.710938 208.886719 5.777344 212.226562 5.289062 214.144531 C 4.804688 216.066406 4.074219 219.226562 3.671875 221.175781 C 3.269531 223.121094 2.695312 226.191406 2.394531 227.996094 C 2.09375 229.800781 1.722656 232.21875 1.570312 233.375 C 1.421875 234.527344 1.207031 236.226562 1.101562 237.148438 C 0.996094 238.070312 0.789062 240.246094 0.640625 241.984375 C 0.492188 243.722656 0.277344 247.585938 0.164062 250.570312 L -0.046875 256 L 0.164062 261.429688 C 0.277344 264.414062 0.492188 268.277344 0.640625 270.015625 C 0.789062 271.753906 0.996094 273.929688 1.101562 274.851562 C 1.207031 275.773438 1.421875 277.472656 1.570312 278.625 C 1.722656 279.78125 2.09375 282.199219 2.394531 284.003906 C 2.695312 285.808594 3.269531 288.878906 3.671875 290.824219 C 4.074219 292.773438 4.804688 295.933594 5.289062 297.855469 C 5.777344 299.773438 6.710938 303.113281 7.367188 305.273438 C 8.019531 307.4375 9.019531 310.515625 9.585938 312.117188 C 10.152344 313.71875 11.21875 316.546875 11.953125 318.402344 C 12.691406 320.261719 13.800781 322.929688 14.421875 324.332031 C 15.042969 325.738281 16.394531 328.613281 17.429688 330.71875 C 18.464844 332.828125 19.945312 335.703125 20.71875 337.105469 C 21.492188 338.511719 22.988281 341.097656 24.039062 342.855469 C 25.09375 344.609375 26.914062 347.484375 28.085938 349.238281 C 29.253906 350.996094 31.070312 353.613281 32.121094 355.058594 C 33.171875 356.503906 35.191406 359.128906 36.605469 360.898438 C 38.023438 362.664062 39.820312 364.851562 40.59375 365.753906 C 41.371094 366.65625 43.179688 368.667969 44.613281 370.222656 C 46.042969 371.78125 48.601562 374.40625 50.292969 376.0625 C 51.984375 377.722656 54.480469 380.0625 55.835938 381.269531 C 57.1875 382.476562 59.285156 384.28125 60.488281 385.285156 C 61.691406 386.285156 63.582031 387.804688 64.683594 388.660156 C 65.789062 389.519531 67.902344 391.097656 69.378906 392.175781 C 70.855469 393.25 73.484375 395.066406 75.21875 396.207031 C 76.949219 397.34375 79.601562 399.019531 81.105469 399.921875 C 82.613281 400.824219 84.96875 402.1875 86.339844 402.945312 C 87.710938 403.707031 90.460938 405.144531 92.449219 406.136719 C 94.441406 407.132812 97.5 408.582031 99.246094 409.355469 C 100.992188 410.132812 103.664062 411.261719 105.175781 411.863281 C 106.691406 412.46875 109.496094 413.527344 111.414062 414.210938 C 113.332031 414.898438 116.679688 415.992188 118.851562 416.648438 C 121.023438 417.300781 124.457031 418.25 126.484375 418.761719 C 128.511719 419.269531 131.777344 420.015625 133.738281 420.417969 C 135.699219 420.820312 138.785156 421.386719 140.589844 421.679688 C 142.398438 421.972656 145.1875 422.375 146.792969 422.578125 C 148.398438 422.78125 151.152344 423.070312 152.90625 423.222656 C 154.664062 423.378906 157.535156 423.585938 159.292969 423.683594 C 161.050781 423.78125 164.949219 423.863281 167.960938 423.863281 C 170.972656 423.863281 174.871094 423.78125 176.628906 423.683594 C 178.382812 423.585938 181.257812 423.378906 183.011719 423.222656 C 184.769531 423.070312 187.519531 422.78125 189.125 422.578125 C 190.730469 422.375 193.523438 421.972656 195.328125 421.679688 C 197.136719 421.386719 200.21875 420.820312 202.179688 420.417969 C 204.140625 420.015625 207.40625 419.269531 209.433594 418.761719 C 211.460938 418.25 214.886719 417.304688 217.046875 416.65625 C 219.207031 416.003906 222.265625 415.015625 223.84375 414.453125 C 225.421875 413.894531 227.578125 413.105469 228.628906 412.699219 C 229.683594 412.296875 232.269531 411.238281 234.378906 410.347656 C 236.484375 409.457031 240.109375 407.792969 242.429688 406.648438 C 244.746094 405.503906 247.582031 404.054688 248.722656 403.429688 C 249.863281 402.800781 252.195312 401.464844 253.902344 400.460938 C 255.609375 399.453125 258.441406 397.691406 260.195312 396.542969 C 261.953125 395.390625 264.539062 393.625 265.945312 392.613281 C 267.347656 391.601562 269.566406 389.949219 270.871094 388.941406 C 272.175781 387.933594 274.226562 386.285156 275.433594 385.285156 C 276.636719 384.28125 278.730469 382.484375 280.085938 381.285156 C 281.441406 380.089844 303.554688 358.125 329.230469 332.472656 C 354.902344 306.820312 376.566406 285.054688 377.371094 284.101562 C 378.175781 283.144531 379.488281 281.394531 380.28125 280.203125 C 381.078125 279.015625 382.328125 276.835938 383.0625 275.359375 C 383.792969 273.882812 384.769531 271.527344 385.230469 270.128906 C 385.695312 268.730469 386.28125 266.636719 386.539062 265.476562 C 386.796875 264.316406 387.128906 262.304688 387.28125 261.007812 C 387.433594 259.710938 387.558594 257.457031 387.558594 256 C 387.558594 254.542969 387.433594 252.289062 387.28125 250.992188 C 387.128906 249.695312 386.796875 247.683594 386.539062 246.523438 C 386.28125 245.363281 385.695312 243.269531 385.230469 241.871094 C 384.769531 240.472656 383.800781 238.132812 383.074219 236.671875 C 382.351562 235.207031 381.1875 233.152344 380.492188 232.097656 C 379.792969 231.042969 378.703125 229.523438 378.0625 228.722656 C 377.421875 227.917969 376.199219 226.53125 375.339844 225.640625 C 374.484375 224.75 372.960938 223.347656 371.957031 222.527344 C 370.953125 221.703125 369.597656 220.660156 368.945312 220.203125 C 368.292969 219.746094 366.945312 218.898438 365.953125 218.316406 C 364.957031 217.734375 363.230469 216.851562 362.121094 216.351562 C 361.007812 215.855469 359.011719 215.085938 357.683594 214.648438 C 356.359375 214.210938 354.265625 213.652344 353.03125 213.402344 C 351.800781 213.15625 350.011719 212.851562 349.058594 212.730469 C 348.105469 212.609375 345.765625 212.515625 343.859375 212.519531 C 341.78125 212.527344 339.582031 212.640625 338.378906 212.8125 C 337.269531 212.964844 335.394531 213.308594 334.214844 213.574219 C 333.03125 213.839844 330.980469 214.425781 329.660156 214.875 C 328.335938 215.324219 326.09375 216.261719 324.679688 216.957031 C 323.265625 217.652344 321.171875 218.84375 320.027344 219.601562 L 317.945312 220.988281 L 268.773438 270.125 L 219.597656 319.265625 L 217.132812 321.09375 C 215.78125 322.097656 213.726562 323.535156 212.574219 324.289062 C 211.417969 325.042969 209.652344 326.132812 208.648438 326.710938 C 207.644531 327.289062 205.511719 328.410156 203.910156 329.199219 C 202.304688 329.988281 199.757812 331.117188 198.253906 331.707031 C 196.746094 332.300781 194.480469 333.117188 193.222656 333.523438 C 191.964844 333.925781 189.828125 334.546875 188.480469 334.898438 C 187.128906 335.25 184.929688 335.746094 183.589844 336.003906 C 182.25 336.261719 179.910156 336.632812 178.390625 336.828125 C 176.867188 337.023438 173.980469 337.273438 171.972656 337.386719 C 169.96875 337.5 167.09375 337.542969 165.589844 337.476562 C 164.082031 337.410156 161.578125 337.238281 160.023438 337.089844 C 158.46875 336.945312 155.964844 336.617188 154.457031 336.363281 C 152.953125 336.113281 150.816406 335.699219 149.714844 335.445312 C 148.609375 335.195312 146.558594 334.660156 145.15625 334.253906 C 143.753906 333.851562 141.578125 333.148438 140.320312 332.695312 C 139.0625 332.242188 136.984375 331.425781 135.695312 330.878906 C 134.410156 330.335938 132.519531 329.46875 131.5 328.957031 C 130.476562 328.445312 128.699219 327.492188 127.542969 326.839844 C 126.390625 326.1875 124.5 325.039062 123.347656 324.285156 C 122.191406 323.535156 120.179688 322.121094 118.875 321.144531 C 117.570312 320.164062 115.476562 318.464844 114.222656 317.363281 C 112.96875 316.261719 110.753906 314.132812 109.296875 312.632812 C 107.84375 311.128906 105.820312 308.878906 104.808594 307.628906 C 103.796875 306.378906 102.332031 304.464844 101.554688 303.375 C 100.78125 302.285156 99.546875 300.4375 98.816406 299.269531 C 98.085938 298.101562 96.941406 296.144531 96.273438 294.921875 C 95.601562 293.699219 94.570312 291.640625 93.980469 290.34375 C 93.390625 289.046875 92.539062 287.046875 92.089844 285.90625 C 91.640625 284.761719 90.894531 282.664062 90.433594 281.242188 C 89.972656 279.820312 89.273438 277.359375 88.882812 275.769531 C 88.492188 274.179688 87.960938 271.644531 87.703125 270.140625 C 87.441406 268.636719 87.085938 266.214844 86.910156 264.757812 L 86.585938 262.113281 L 86.585938 249.886719 L 86.910156 247.242188 C 87.085938 245.785156 87.441406 243.363281 87.703125 241.859375 C 87.960938 240.355469 88.492188 237.820312 88.882812 236.230469 C 89.273438 234.640625 89.972656 232.179688 90.433594 230.757812 C 90.894531 229.335938 91.640625 227.238281 92.089844 226.09375 C 92.539062 224.953125 93.390625 222.953125 93.980469 221.65625 C 94.570312 220.359375 95.601562 218.300781 96.273438 217.078125 C 96.941406 215.855469 98.105469 213.867188 98.855469 212.664062 C 99.605469 211.460938 100.839844 209.613281 101.597656 208.558594 C 102.351562 207.503906 103.792969 205.617188 104.796875 204.363281 L 106.625 202.082031 L 153.621094 155.035156 C 179.472656 129.15625 201.773438 106.90625 203.179688 105.585938 C 204.585938 104.265625 206.804688 102.25 208.105469 101.105469 C 209.410156 99.960938 211.824219 97.917969 213.472656 96.570312 C 215.121094 95.21875 218.203125 92.820312 220.316406 91.238281 C 222.429688 89.65625 225.355469 87.539062 226.8125 86.53125 C 228.273438 85.523438 230.941406 83.761719 232.746094 82.617188 C 234.546875 81.46875 237.128906 79.871094 238.484375 79.070312 C 239.839844 78.265625 242.097656 76.964844 243.5 76.175781 C 244.90625 75.390625 247.78125 73.863281 249.886719 72.785156 C 251.996094 71.707031 255.363281 70.066406 257.367188 69.144531 C 259.375 68.222656 262.484375 66.859375 264.28125 66.109375 C 266.074219 65.363281 269.03125 64.191406 270.847656 63.503906 C 272.667969 62.820312 275.511719 61.792969 277.167969 61.222656 C 278.820312 60.65625 281.941406 59.65625 284.101562 59 C 286.257812 58.34375 290.410156 57.203125 293.324219 56.46875 C 296.242188 55.730469 300.472656 54.757812 302.722656 54.300781 C 304.972656 53.847656 308.335938 53.222656 310.191406 52.917969 C 312.050781 52.609375 315.457031 52.121094 317.765625 51.824219 C 320.074219 51.53125 323.316406 51.167969 324.972656 51.015625 C 326.628906 50.863281 329.335938 50.632812 330.992188 50.503906 C 332.957031 50.351562 337.53125 50.269531 344.132812 50.273438 C 350.503906 50.273438 355.375 50.359375 357.269531 50.503906 C 358.925781 50.628906 361.632812 50.855469 363.289062 51.007812 C 364.945312 51.160156 367.65625 51.453125 369.3125 51.65625 C 370.96875 51.859375 373.664062 52.230469 375.304688 52.484375 C 376.945312 52.734375 378.335938 52.890625 378.398438 52.832031 C 378.457031 52.769531 377.28125 51.484375 375.78125 49.976562 C 374.28125 48.464844 371.78125 46.058594 370.222656 44.621094 C 368.667969 43.1875 366.492188 41.238281 365.386719 40.292969 C 364.285156 39.347656 362.355469 37.75 361.101562 36.746094 C 359.847656 35.738281 358 34.300781 356.996094 33.546875 C 355.992188 32.792969 353.9375 31.3125 352.433594 30.253906 C 350.929688 29.195312 348.339844 27.46875 346.6875 26.414062 C 345.03125 25.359375 342.484375 23.804688 341.027344 22.953125 C 339.574219 22.101562 337.035156 20.683594 335.382812 19.796875 C 333.734375 18.914062 331.191406 17.617188 329.726562 16.917969 C 328.265625 16.21875 325.878906 15.117188 324.425781 14.46875 C 322.96875 13.820312 320.261719 12.6875 318.402344 11.953125 C 316.546875 11.21875 313.71875 10.152344 312.117188 9.585938 C 310.515625 9.019531 307.4375 8.019531 305.273438 7.367188 C 303.113281 6.710938 299.773438 5.777344 297.855469 5.289062 C 295.933594 4.804688 292.773438 4.074219 290.824219 3.671875 C 288.878906 3.269531 285.808594 2.695312 284.003906 2.394531 C 282.199219 2.09375 279.78125 1.722656 278.625 1.570312 C 277.472656 1.417969 275.378906 1.167969 273.972656 1.015625 C 272.566406 0.863281 270.308594 0.65625 268.957031 0.550781 C 267.601562 0.445312 264.5625 0.277344 262.203125 0.183594 C 259.84375 0.0859375 256.726562 0.0195312 255.269531 0.03125 C 253.816406 0.046875 251.074219 0.121094 249.175781 0.195312 "/>
<path style=" stroke:none;fill-rule:evenodd;fill:rgb(17.254902%,76.862745%,92.156863%);fill-opacity:1;" d="M 334.917969 88.328125 C 333.511719 88.410156 330.882812 88.605469 329.078125 88.765625 C 327.269531 88.925781 324.480469 89.21875 322.875 89.421875 C 321.269531 89.625 318.476562 90.027344 316.671875 90.320312 C 314.863281 90.613281 311.78125 91.179688 309.820312 91.582031 C 307.859375 91.984375 304.59375 92.730469 302.566406 93.238281 C 300.539062 93.75 297.113281 94.695312 294.953125 95.34375 C 292.792969 95.996094 289.734375 96.984375 288.15625 97.546875 C 286.578125 98.105469 284.421875 98.894531 283.371094 99.300781 C 282.316406 99.703125 279.730469 100.761719 277.621094 101.652344 C 275.515625 102.542969 271.890625 104.207031 269.570312 105.351562 C 267.253906 106.496094 264.417969 107.945312 263.277344 108.570312 C 262.136719 109.199219 259.804688 110.535156 258.097656 111.539062 C 256.390625 112.546875 253.558594 114.308594 251.804688 115.457031 C 250.046875 116.609375 247.460938 118.375 246.054688 119.386719 C 244.652344 120.398438 242.296875 122.15625 240.828125 123.296875 C 239.359375 124.4375 236.9375 126.398438 235.445312 127.660156 C 233.957031 128.921875 231.460938 131.128906 229.90625 132.566406 C 228.351562 134.003906 206.335938 155.941406 180.988281 181.3125 C 151.496094 210.828125 134.46875 228.003906 133.707031 228.996094 C 133.050781 229.847656 132.007812 231.324219 131.378906 232.28125 C 130.753906 233.234375 129.652344 235.207031 128.925781 236.671875 C 128.203125 238.132812 127.230469 240.472656 126.769531 241.871094 C 126.304688 243.269531 125.71875 245.363281 125.460938 246.523438 C 125.203125 247.683594 124.871094 249.695312 124.71875 250.992188 C 124.566406 252.289062 124.441406 254.542969 124.441406 256 C 124.441406 257.457031 124.566406 259.710938 124.71875 261.007812 C 124.871094 262.304688 125.203125 264.316406 125.460938 265.476562 C 125.71875 266.636719 126.304688 268.730469 126.769531 270.128906 C 127.230469 271.527344 128.199219 273.867188 128.925781 275.328125 C 129.648438 276.792969 130.8125 278.847656 131.507812 279.902344 C 132.207031 280.957031 133.296875 282.476562 133.9375 283.277344 C 134.578125 284.082031 135.800781 285.46875 136.660156 286.359375 C 137.515625 287.25 139.039062 288.652344 140.042969 289.472656 C 141.046875 290.296875 142.402344 291.339844 143.054688 291.796875 C 143.707031 292.253906 145.054688 293.101562 146.046875 293.683594 C 147.042969 294.265625 148.769531 295.148438 149.878906 295.648438 C 150.992188 296.144531 152.988281 296.914062 154.316406 297.351562 C 155.640625 297.789062 157.734375 298.347656 158.96875 298.597656 C 160.199219 298.84375 161.988281 299.148438 162.941406 299.269531 C 163.894531 299.390625 166.234375 299.484375 168.140625 299.480469 C 170.21875 299.472656 172.417969 299.359375 173.621094 299.1875 C 174.730469 299.035156 176.605469 298.691406 177.785156 298.425781 C 178.96875 298.160156 181.019531 297.574219 182.339844 297.125 C 183.664062 296.675781 185.90625 295.738281 187.320312 295.042969 C 188.734375 294.347656 190.828125 293.15625 191.972656 292.398438 L 194.054688 291.011719 L 243.226562 241.875 L 292.402344 192.734375 L 294.867188 190.90625 C 296.21875 189.902344 298.273438 188.464844 299.425781 187.710938 C 300.582031 186.957031 302.347656 185.867188 303.351562 185.289062 C 304.355469 184.710938 306.488281 183.589844 308.089844 182.800781 C 309.695312 182.011719 312.242188 180.882812 313.746094 180.292969 C 315.253906 179.699219 317.519531 178.882812 318.777344 178.476562 C 320.035156 178.074219 322.171875 177.453125 323.519531 177.101562 C 324.871094 176.75 327.070312 176.253906 328.410156 175.996094 C 329.75 175.738281 332.089844 175.367188 333.609375 175.171875 C 335.132812 174.976562 338.019531 174.726562 340.027344 174.613281 C 342.03125 174.5 344.90625 174.457031 346.410156 174.523438 C 347.917969 174.589844 350.421875 174.761719 351.976562 174.910156 C 353.53125 175.054688 356.035156 175.382812 357.542969 175.636719 C 359.046875 175.886719 361.183594 176.300781 362.285156 176.554688 C 363.390625 176.804688 365.441406 177.339844 366.84375 177.746094 C 368.246094 178.148438 370.421875 178.851562 371.679688 179.304688 C 372.9375 179.757812 375.015625 180.574219 376.304688 181.121094 C 377.589844 181.664062 379.480469 182.53125 380.5 183.042969 C 381.523438 183.554688 383.300781 184.503906 384.457031 185.15625 C 385.609375 185.808594 387.703125 187.101562 389.109375 188.03125 C 390.515625 188.960938 392.453125 190.328125 393.421875 191.066406 C 394.386719 191.804688 396.160156 193.246094 397.355469 194.269531 C 398.554688 195.292969 400.84375 197.472656 402.441406 199.113281 C 404.039062 200.753906 406.179688 203.117188 407.191406 204.367188 C 408.203125 205.621094 409.667969 207.535156 410.445312 208.625 C 411.21875 209.714844 412.453125 211.5625 413.183594 212.730469 C 413.914062 213.898438 415.058594 215.855469 415.726562 217.078125 C 416.398438 218.300781 417.429688 220.359375 418.019531 221.65625 C 418.609375 222.953125 419.460938 224.953125 419.910156 226.09375 C 420.359375 227.238281 421.105469 229.335938 421.566406 230.757812 C 422.027344 232.179688 422.726562 234.640625 423.117188 236.230469 C 423.507812 237.820312 424.039062 240.355469 424.296875 241.859375 C 424.558594 243.363281 424.914062 245.785156 425.089844 247.242188 L 425.414062 249.886719 L 425.414062 262.113281 L 425.089844 264.757812 C 424.914062 266.214844 424.558594 268.636719 424.296875 270.140625 C 424.039062 271.644531 423.507812 274.179688 423.117188 275.769531 C 422.726562 277.359375 422.027344 279.820312 421.566406 281.242188 C 421.105469 282.664062 420.359375 284.761719 419.910156 285.90625 C 419.460938 287.046875 418.609375 289.046875 418.019531 290.34375 C 417.429688 291.640625 416.398438 293.699219 415.726562 294.921875 C 415.058594 296.144531 413.894531 298.132812 413.144531 299.335938 C 412.394531 300.539062 411.160156 302.386719 410.402344 303.441406 C 409.648438 304.496094 408.207031 306.382812 407.203125 307.636719 L 405.375 309.917969 L 358.378906 356.964844 C 332.527344 382.84375 310.226562 405.09375 308.820312 406.414062 C 307.414062 407.734375 305.195312 409.75 303.894531 410.894531 C 302.589844 412.039062 300.175781 414.082031 298.527344 415.429688 C 296.878906 416.78125 293.796875 419.179688 291.683594 420.761719 C 289.570312 422.34375 286.644531 424.460938 285.1875 425.46875 C 283.726562 426.476562 281.058594 428.238281 279.253906 429.382812 C 277.453125 430.53125 274.871094 432.128906 273.515625 432.929688 C 272.160156 433.734375 269.902344 435.035156 268.5 435.824219 C 267.09375 436.609375 264.21875 438.136719 262.113281 439.214844 C 260.003906 440.292969 256.636719 441.933594 254.632812 442.855469 C 252.625 443.777344 249.515625 445.140625 247.71875 445.890625 C 245.925781 446.636719 242.96875 447.808594 241.152344 448.496094 C 239.332031 449.179688 236.488281 450.207031 234.832031 450.777344 C 233.179688 451.34375 230.058594 452.34375 227.898438 453 C 225.742188 453.65625 221.589844 454.796875 218.675781 455.53125 C 215.757812 456.269531 211.527344 457.242188 209.277344 457.699219 C 207.027344 458.152344 203.664062 458.777344 201.808594 459.082031 C 199.949219 459.390625 196.542969 459.878906 194.234375 460.175781 C 191.925781 460.46875 188.683594 460.832031 187.027344 460.984375 C 185.371094 461.136719 182.664062 461.367188 181.007812 461.496094 C 179.042969 461.648438 174.46875 461.730469 167.867188 461.726562 C 161.496094 461.726562 156.625 461.640625 154.730469 461.496094 C 153.074219 461.371094 150.367188 461.144531 148.710938 460.992188 C 147.054688 460.839844 144.34375 460.546875 142.6875 460.34375 C 141.03125 460.140625 138.335938 459.769531 136.695312 459.515625 C 135.054688 459.265625 133.664062 459.109375 133.601562 459.167969 C 133.542969 459.230469 134.71875 460.515625 136.21875 462.023438 C 137.71875 463.535156 140.21875 465.941406 141.777344 467.375 C 143.332031 468.808594 145.507812 470.757812 146.613281 471.703125 C 147.714844 472.652344 149.644531 474.25 150.898438 475.253906 C 152.152344 476.261719 154 477.699219 155.003906 478.453125 C 156.007812 479.207031 158.0625 480.6875 159.566406 481.746094 C 161.070312 482.804688 163.660156 484.53125 165.3125 485.585938 C 166.96875 486.640625 169.515625 488.195312 170.972656 489.046875 C 172.425781 489.898438 174.964844 491.316406 176.617188 492.203125 C 178.265625 493.085938 180.808594 494.382812 182.273438 495.082031 C 183.734375 495.78125 186.121094 496.882812 187.574219 497.53125 C 189.03125 498.179688 191.738281 499.3125 193.597656 500.046875 C 195.453125 500.78125 198.28125 501.847656 199.882812 502.414062 C 201.484375 502.980469 204.5625 503.980469 206.726562 504.632812 C 208.886719 505.289062 212.226562 506.222656 214.144531 506.710938 C 216.066406 507.195312 219.226562 507.925781 221.175781 508.328125 C 223.121094 508.730469 226.191406 509.304688 227.996094 509.605469 C 229.800781 509.90625 232.21875 510.277344 233.375 510.429688 C 234.527344 510.578125 236.226562 510.792969 237.148438 510.898438 C 238.070312 511.003906 240.246094 511.210938 241.984375 511.359375 C 243.722656 511.507812 247.585938 511.722656 250.570312 511.835938 L 256 512.046875 L 261.429688 511.835938 C 264.414062 511.722656 268.277344 511.507812 270.015625 511.359375 C 271.753906 511.210938 273.929688 511.003906 274.851562 510.898438 C 275.773438 510.792969 277.472656 510.578125 278.625 510.429688 C 279.78125 510.277344 282.199219 509.90625 284.003906 509.605469 C 285.808594 509.304688 288.878906 508.730469 290.824219 508.328125 C 292.773438 507.925781 295.933594 507.195312 297.855469 506.710938 C 299.773438 506.222656 303.113281 505.289062 305.273438 504.632812 C 307.4375 503.980469 310.515625 502.980469 312.117188 502.414062 C 313.71875 501.847656 316.546875 500.78125 318.402344 500.046875 C 320.261719 499.3125 322.96875 498.179688 324.425781 497.53125 C 325.878906 496.882812 328.265625 495.78125 329.726562 495.082031 C 331.191406 494.382812 333.734375 493.085938 335.382812 492.203125 C 337.035156 491.316406 339.574219 489.898438 341.027344 489.046875 C 342.484375 488.195312 345.03125 486.640625 346.6875 485.585938 C 348.339844 484.53125 350.929688 482.804688 352.433594 481.746094 C 353.9375 480.6875 355.992188 479.207031 356.996094 478.453125 C 358 477.699219 359.847656 476.261719 361.101562 475.253906 C 362.355469 474.25 364.285156 472.652344 365.386719 471.707031 C 366.492188 470.761719 368.667969 468.8125 370.222656 467.378906 C 371.78125 465.941406 394.324219 443.476562 420.320312 417.449219 C 447.359375 390.386719 468.578125 369 469.898438 367.488281 C 471.167969 366.03125 473.078125 363.773438 474.144531 362.46875 C 475.210938 361.164062 476.925781 358.988281 477.953125 357.632812 C 478.984375 356.277344 480.691406 353.9375 481.746094 352.433594 C 482.804688 350.929688 484.53125 348.339844 485.585938 346.6875 C 486.640625 345.03125 488.195312 342.484375 489.046875 341.027344 C 489.898438 339.574219 491.316406 337.03125 492.203125 335.382812 C 493.089844 333.730469 494.371094 331.21875 495.054688 329.796875 C 495.738281 328.375 496.835938 325.988281 497.5 324.496094 C 498.164062 323 499.3125 320.261719 500.046875 318.402344 C 500.78125 316.546875 501.847656 313.71875 502.414062 312.117188 C 502.980469 310.515625 503.980469 307.4375 504.632812 305.273438 C 505.289062 303.113281 506.222656 299.773438 506.710938 297.855469 C 507.195312 295.933594 507.925781 292.773438 508.328125 290.824219 C 508.730469 288.878906 509.304688 285.808594 509.605469 284.003906 C 509.90625 282.199219 510.277344 279.78125 510.429688 278.625 C 510.578125 277.472656 510.792969 275.773438 510.898438 274.851562 C 511.003906 273.929688 511.210938 271.753906 511.359375 270.015625 C 511.507812 268.277344 511.722656 264.414062 511.835938 261.429688 L 512.046875 256 L 511.835938 250.570312 C 511.722656 247.585938 511.507812 243.722656 511.359375 241.984375 C 511.210938 240.246094 511.003906 238.070312 510.898438 237.148438 C 510.792969 236.226562 510.578125 234.527344 510.429688 233.375 C 510.277344 232.21875 509.90625 229.800781 509.605469 227.996094 C 509.304688 226.191406 508.730469 223.121094 508.328125 221.175781 C 507.925781 219.226562 507.195312 216.066406 506.710938 214.144531 C 506.222656 212.226562 505.289062 208.886719 504.632812 206.726562 C 503.980469 204.5625 502.980469 201.484375 502.414062 199.882812 C 501.847656 198.28125 500.78125 195.453125 500.046875 193.597656 C 499.308594 191.738281 498.199219 189.070312 497.578125 187.667969 C 496.957031 186.261719 495.605469 183.386719 494.570312 181.28125 C 493.535156 179.171875 492.054688 176.296875 491.28125 174.894531 C 490.507812 173.488281 489.011719 170.902344 487.960938 169.144531 C 486.90625 167.390625 485.085938 164.515625 483.914062 162.761719 C 482.746094 161.003906 480.929688 158.386719 479.878906 156.941406 C 478.828125 155.496094 476.808594 152.871094 475.394531 151.101562 C 473.976562 149.335938 472.179688 147.148438 471.40625 146.246094 C 470.628906 145.34375 468.820312 143.332031 467.386719 141.777344 C 465.957031 140.21875 463.398438 137.59375 461.707031 135.9375 C 460.015625 134.277344 457.519531 131.9375 456.164062 130.730469 C 454.8125 129.523438 452.714844 127.71875 451.511719 126.714844 C 450.308594 125.714844 448.417969 124.195312 447.316406 123.339844 C 446.210938 122.480469 444.097656 120.902344 442.621094 119.824219 C 441.144531 118.75 438.515625 116.933594 436.78125 115.792969 C 435.050781 114.65625 432.398438 112.980469 430.894531 112.078125 C 429.386719 111.175781 427.03125 109.8125 425.660156 109.054688 C 424.289062 108.292969 421.539062 106.855469 419.550781 105.863281 C 417.558594 104.867188 414.5 103.417969 412.753906 102.644531 C 411.007812 101.867188 408.335938 100.738281 406.824219 100.136719 C 405.308594 99.53125 402.503906 98.472656 400.585938 97.789062 C 398.667969 97.101562 395.320312 96.007812 393.148438 95.351562 C 390.976562 94.699219 387.542969 93.75 385.515625 93.238281 C 383.488281 92.730469 380.222656 91.984375 378.261719 91.582031 C 376.300781 91.179688 373.214844 90.613281 371.410156 90.320312 C 369.601562 90.027344 366.8125 89.625 365.207031 89.421875 C 363.601562 89.21875 360.847656 88.929688 359.09375 88.777344 C 357.335938 88.621094 354.464844 88.414062 352.707031 88.316406 C 350.949219 88.21875 346.804688 88.148438 343.492188 88.160156 C 340.179688 88.175781 336.320312 88.25 334.917969 88.328125 "/>
</g>
</svg>
